<?xml version="1.0" encoding="UTF-8" standalone="no"?>
<svg
   width="20mm"
   height="20mm"
   viewBox="0 0 20 20"
   version="1.1"
   id="svg8"
   inkscape:version="1.1 (1:1.1+202105261517+ce6663b3b7)"
   sodipodi:docname="Wohnwerk-09-kde-like-rand.svg"
   xmlns:inkscape="http://www.inkscape.org/namespaces/inkscape"
   xmlns:sodipodi="http://sodipodi.sourceforge.net/DTD/sodipodi-0.dtd"
   xmlns="http://www.w3.org/2000/svg"
   xmlns:svg="http://www.w3.org/2000/svg"
   xmlns:rdf="http://www.w3.org/1999/02/22-rdf-syntax-ns#"
   xmlns:cc="http://creativecommons.org/ns#"
   xmlns:dc="http://purl.org/dc/elements/1.1/">
  <defs
     id="defs2" />
  <sodipodi:namedview
     id="base"
     pagecolor="#ffffff"
     bordercolor="#666666"
     borderopacity="1.0"
     inkscape:pageopacity="0.0"
     inkscape:pageshadow="2"
     inkscape:zoom="5.224273"
     inkscape:cx="28.520715"
     inkscape:cy="53.595974"
     inkscape:document-units="mm"
     inkscape:current-layer="layer1"
     inkscape:document-rotation="0"
     showgrid="false"
     inkscape:snap-intersection-paths="false"
     inkscape:object-paths="false"
     inkscape:snap-center="true"
     inkscape:window-width="1600"
     inkscape:window-height="850"
     inkscape:window-x="0"
     inkscape:window-y="565"
     inkscape:window-maximized="1"
     inkscape:snap-global="true"
     inkscape:object-nodes="true"
     inkscape:snap-bbox="true"
     inkscape:bbox-nodes="false"
     inkscape:snap-bbox-edge-midpoints="true"
     inkscape:snap-object-midpoints="true"
     inkscape:snap-bbox-midpoints="true"
     inkscape:pagecheckerboard="0" />
  <metadata
     id="metadata5">
    <rdf:RDF>
      <cc:Work
         rdf:about="">
        <dc:format>image/svg+xml</dc:format>
        <dc:type
           rdf:resource="http://purl.org/dc/dcmitype/StillImage" />
      </cc:Work>
    </rdf:RDF>
  </metadata>
  <g
     inkscape:label="Ebene 1"
     inkscape:groupmode="layer"
     id="layer1"
     style="opacity:1">
    <circle
       style="fill:#ffffff;stroke:#ffffff;stroke-width:0.126757;stroke-linejoin:round;stroke-miterlimit:4;stroke-dasharray:none;stroke-opacity:1"
       id="path1095"
       cx="9.9293633"
       cy="9.9232941"
       r="9.4454842" />
    <path
       style="fill:#009100;stroke:#005d00;stroke-width:0.877783;stroke-linecap:butt;stroke-linejoin:round;stroke-miterlimit:4;stroke-dasharray:none;stroke-opacity:1"
       d="M 5.6752461,14.367732 H 15.057702 V 9.0290875 L 14.023746,8.198496 V 5.580811 H 12.92464 V 7.3998961 L 10.421066,5.580811 5.6752461,9.0290875 Z"
       id="path835-0-6-5-4-0"
       sodipodi:nodetypes="cccccccccc" />
    <path
       style="fill:#009100;fill-opacity:1;stroke:#009100;stroke-width:0.877783;stroke-linecap:butt;stroke-linejoin:round;stroke-miterlimit:4;stroke-dasharray:none;stroke-opacity:1"
       d="m 5.319989,14.012475 h 9.382456 V 8.6738305 L 13.668489,7.8432391 V 5.2255542 H 12.569383 V 7.044639 L 10.065809,5.2255542 5.319989,8.6738305 Z"
       id="path835-0-3-3-7-8"
       sodipodi:nodetypes="cccccccccc" />
    <circle
       style="fill:#ffffff;stroke:#ffffff;stroke-width:0;stroke-linecap:square;stroke-linejoin:round"
       id="path920-8-8"
       cx="9.9760103"
       cy="10.929984"
       r="2.850064" />
    <g
       id="g46671"
       transform="matrix(0.12139463,-0.04998978,0.04998978,0.12139463,-9.58571,12.92441)">
      <path
         id="path36862-7-7"
         style="fill:none;stroke:#000000;stroke-width:3.09999;stroke-linecap:butt;stroke-linejoin:round;stroke-opacity:1"
         d="m 135.29252,57.833677 0.001,5.29e-4 c 5.15295,2.95682 11.49092,2.944218 16.63206,-0.03307 m 8.34004,-14.387764 c 7.9e-4,-5.94791 -3.17088,-11.444653 -8.32094,-14.420308 l -0.001,-5.29e-4 m -16.65066,5.29e-4 c -2.53128,1.46145 -4.63327,3.563443 -6.09472,6.094717 -1.46136,2.53115 -2.23076,5.402355 -2.23087,8.325075"
         sodipodi:nodetypes="cccccccsc" />
      <path
         id="path6887-7-6-3-1-4"
         style="fill:#000000;fill-opacity:1;fill-rule:evenodd;stroke:#000000;stroke-width:1;stroke-linecap:butt;stroke-linejoin:round;stroke-miterlimit:4;stroke-dasharray:none;stroke-dashoffset:0;stroke-opacity:1;paint-order:markers fill stroke"
         d="m 164.50308,61.113659 -0.58113,-2.168771 a 6.0340614,6.0340614 0 0 0 1.77713,-1.358513 l 1.94072,1.120476 1.23411,-2.137541 -1.94292,-1.121877 a 6.0340614,6.0340614 0 0 0 0.29499,-2.218192 l 2.16393,-0.57982 -0.63877,-2.38393 -2.16906,0.581195 a 6.0340614,6.0340614 0 0 0 -1.35823,-1.777193 l 1.12051,-1.94058 -2.13754,-1.234112 -1.12187,1.942929 a 6.0340614,6.0340614 0 0 0 -2.21823,-0.29514 l -0.57979,-2.163783 -2.38392,0.638767 0.58112,2.16878 a 6.0340614,6.0340614 0 0 0 -1.77713,1.358503 l -1.94058,-1.120511 -1.23411,2.137542 1.9429,1.121729 a 6.0340614,6.0340614 0 0 0 -0.29515,2.218236 l -2.16378,0.579785 0.63877,2.383922 2.16878,-0.581119 a 6.0340614,6.0340614 0 0 0 1.35855,1.777264 l -1.12052,1.940581 2.13755,1.23411 1.12172,-1.942884 a 6.0340614,6.0340614 0 0 0 2.2182,0.294991 l 0.57982,2.16393 z m -2.37293,-4.112234 a 3.5587729,3.5587729 0 0 1 -0.006,0.0013 3.5587729,3.5587729 0 0 1 -4.35863,-2.516327 3.5587729,3.5587729 0 0 1 2.51648,-4.358662 3.5587729,3.5587729 0 0 1 4.35852,2.516508 3.5587729,3.5587729 0 0 1 -2.51037,4.356888 z" />
      <path
         id="path6887-7-6-3-6-2-7-1"
         style="fill:#000000;fill-opacity:1;fill-rule:evenodd;stroke:#000000;stroke-width:1;stroke-linecap:butt;stroke-linejoin:round;stroke-miterlimit:4;stroke-dasharray:none;stroke-dashoffset:0;stroke-opacity:1;paint-order:markers fill stroke"
         d="m 148.50591,16.477842 -1.58765,1.587653 a 6.0340614,6.0340614 0 0 0 -2.06507,-0.859783 v -2.240951 h -2.46822 l -1.1e-4,2.243563 a 6.0340614,6.0340614 0 0 0 -2.06851,0.85362 l -1.5841,-1.584102 -1.74516,1.745155 1.58786,1.587862 a 6.0340614,6.0340614 0 0 0 -0.85998,2.064859 l -2.24085,-1.05e-4 v 2.468222 l 2.24356,1.04e-4 a 6.0340614,6.0340614 0 0 0 0.85352,2.068618 l -1.584,1.583998 1.74515,1.745155 1.58766,-1.587654 a 6.0340614,6.0340614 0 0 0 2.06506,0.859784 l -1e-4,2.240847 2.46822,-1e-6 v -2.243457 a 6.0340614,6.0340614 0 0 0 2.06862,-0.853517 l 1.584,1.583998 1.74515,-1.745155 -1.58765,-1.587653 a 6.0340614,6.0340614 0 0 0 0.85988,-2.065171 l 2.24085,1.04e-4 v -2.468221 h -2.24345 A 6.0340614,6.0340614 0 0 0 148.66696,19.8071 l 1.58411,-1.584102 z m -2.37485,4.111125 a 3.5587729,3.5587729 0 0 1 0.004,0.0044 3.5587729,3.5587729 0 0 1 1e-4,5.032845 3.5587729,3.5587729 0 0 1 -5.03295,0 3.5587729,3.5587729 0 0 1 1.1e-4,-5.032844 3.5587729,3.5587729 0 0 1 5.02836,-0.0044 z" />
      <path
         id="path6887-7-6-3-6-4-8-8"
         style="fill:#000000;fill-opacity:1;fill-rule:evenodd;stroke:#000000;stroke-width:1;stroke-linecap:butt;stroke-linejoin:round;stroke-miterlimit:4;stroke-dasharray:none;stroke-dashoffset:0;stroke-opacity:1;paint-order:markers fill stroke"
         d="m 117.84874,52.649133 2.16878,0.581118 a 6.0340614,6.0340614 0 0 0 0.28794,2.218295 l -1.94072,1.120475 1.23411,2.137542 1.94303,-1.121687 a 6.0340614,6.0340614 0 0 0 1.77352,1.364573 l -0.57983,2.163922 2.38393,0.638775 0.5812,-2.169058 a 6.0340614,6.0340614 0 0 0 2.21821,-0.287665 l 1.12033,1.940685 2.13755,-1.234111 -1.12169,-1.943032 a 6.0340614,6.0340614 0 0 0 1.36471,-1.773479 l 2.16379,0.579786 0.63877,-2.383922 -2.16878,-0.581127 a 6.0340614,6.0340614 0 0 0 -0.28793,-2.218286 l 1.94068,-1.120337 -1.23411,-2.137541 -1.9429,1.121728 a 6.0340614,6.0340614 0 0 0 -1.77347,-1.364718 l 0.57978,-2.163784 -2.38392,-0.638766 -0.58113,2.168771 a 6.0340614,6.0340614 0 0 0 -2.21843,0.287908 l -1.12033,-1.940685 -2.13754,1.23411 1.12172,1.942885 a 6.0340614,6.0340614 0 0 0 -1.36457,1.773522 l -2.16393,-0.579828 z m 4.74777,0.0011 a 3.5587729,3.5587729 0 0 1 0.002,-0.0057 3.5587729,3.5587729 0 0 1 4.35852,-2.516509 3.5587729,3.5587729 0 0 1 2.51647,4.358663 3.5587729,3.5587729 0 0 1 -4.35862,2.516327 3.5587729,3.5587729 0 0 1 -2.51799,-4.352488 z" />
    </g>
    <g
       id="g46681"
       transform="matrix(0.12139463,-0.04998978,0.04998978,0.12139463,-9.69888,12.840653)">
      <path
         id="path36862-7"
         style="fill:none;stroke:#404040;stroke-width:3.09999;stroke-linecap:butt;stroke-linejoin:round"
         d="m 135.29252,57.833677 0.001,5.29e-4 c 5.15295,2.95682 11.49092,2.944218 16.63206,-0.03307 m 8.34004,-14.387764 c 7.9e-4,-5.94791 -3.17088,-11.444653 -8.32094,-14.420308 l -0.001,-5.29e-4 m -16.65066,5.29e-4 c -2.53128,1.46145 -4.63327,3.563443 -6.09472,6.094717 -1.46136,2.53115 -2.23076,5.402355 -2.23087,8.325075"
         sodipodi:nodetypes="cccccccsc" />
      <path
         id="path6887-7-6-3-1"
         style="fill:#404040;fill-opacity:1;fill-rule:evenodd;stroke:#404040;stroke-width:1;stroke-linecap:butt;stroke-linejoin:round;stroke-miterlimit:4;stroke-dasharray:none;stroke-dashoffset:0;stroke-opacity:1;paint-order:markers fill stroke"
         d="m 164.50308,61.113659 -0.58113,-2.168771 a 6.0340614,6.0340614 0 0 0 1.77713,-1.358513 l 1.94072,1.120476 1.23411,-2.137541 -1.94292,-1.121877 a 6.0340614,6.0340614 0 0 0 0.29499,-2.218192 l 2.16393,-0.57982 -0.63877,-2.38393 -2.16906,0.581195 a 6.0340614,6.0340614 0 0 0 -1.35823,-1.777193 l 1.12051,-1.94058 -2.13754,-1.234112 -1.12187,1.942929 a 6.0340614,6.0340614 0 0 0 -2.21823,-0.29514 l -0.57979,-2.163783 -2.38392,0.638767 0.58112,2.16878 a 6.0340614,6.0340614 0 0 0 -1.77713,1.358503 l -1.94058,-1.120511 -1.23411,2.137542 1.9429,1.121729 a 6.0340614,6.0340614 0 0 0 -0.29515,2.218236 l -2.16378,0.579785 0.63877,2.383922 2.16878,-0.581119 a 6.0340614,6.0340614 0 0 0 1.35855,1.777264 l -1.12052,1.940581 2.13755,1.23411 1.12172,-1.942884 a 6.0340614,6.0340614 0 0 0 2.2182,0.294991 l 0.57982,2.16393 z m -2.37293,-4.112234 a 3.5587729,3.5587729 0 0 1 -0.006,0.0013 3.5587729,3.5587729 0 0 1 -4.35863,-2.516327 3.5587729,3.5587729 0 0 1 2.51648,-4.358662 3.5587729,3.5587729 0 0 1 4.35852,2.516508 3.5587729,3.5587729 0 0 1 -2.51037,4.356888 z" />
      <path
         id="path6887-7-6-3-6-2-7"
         style="fill:#404040;fill-opacity:1;fill-rule:evenodd;stroke:#404040;stroke-width:1;stroke-linecap:butt;stroke-linejoin:round;stroke-miterlimit:4;stroke-dasharray:none;stroke-dashoffset:0;stroke-opacity:1;paint-order:markers fill stroke"
         d="m 148.50591,16.477842 -1.58765,1.587653 a 6.0340614,6.0340614 0 0 0 -2.06507,-0.859783 v -2.240951 h -2.46822 l -1.1e-4,2.243563 a 6.0340614,6.0340614 0 0 0 -2.06851,0.85362 l -1.5841,-1.584102 -1.74516,1.745155 1.58786,1.587862 a 6.0340614,6.0340614 0 0 0 -0.85998,2.064859 l -2.24085,-1.05e-4 v 2.468222 l 2.24356,1.04e-4 a 6.0340614,6.0340614 0 0 0 0.85352,2.068618 l -1.584,1.583998 1.74515,1.745155 1.58766,-1.587654 a 6.0340614,6.0340614 0 0 0 2.06506,0.859784 l -1e-4,2.240847 2.46822,-1e-6 v -2.243457 a 6.0340614,6.0340614 0 0 0 2.06862,-0.853517 l 1.584,1.583998 1.74515,-1.745155 -1.58765,-1.587653 a 6.0340614,6.0340614 0 0 0 0.85988,-2.065171 l 2.24085,1.04e-4 v -2.468221 h -2.24345 A 6.0340614,6.0340614 0 0 0 148.66696,19.8071 l 1.58411,-1.584102 z m -2.37485,4.111125 a 3.5587729,3.5587729 0 0 1 0.004,0.0044 3.5587729,3.5587729 0 0 1 1e-4,5.032845 3.5587729,3.5587729 0 0 1 -5.03295,0 3.5587729,3.5587729 0 0 1 1.1e-4,-5.032844 3.5587729,3.5587729 0 0 1 5.02836,-0.0044 z" />
      <path
         id="path6887-7-6-3-6-4-8"
         style="fill:#404040;fill-opacity:1;fill-rule:evenodd;stroke:#404040;stroke-width:1;stroke-linecap:butt;stroke-linejoin:round;stroke-miterlimit:4;stroke-dasharray:none;stroke-dashoffset:0;stroke-opacity:1;paint-order:markers fill stroke"
         d="m 117.84874,52.649133 2.16878,0.581118 a 6.0340614,6.0340614 0 0 0 0.28794,2.218295 l -1.94072,1.120475 1.23411,2.137542 1.94303,-1.121687 a 6.0340614,6.0340614 0 0 0 1.77352,1.364573 l -0.57983,2.163922 2.38393,0.638775 0.5812,-2.169058 a 6.0340614,6.0340614 0 0 0 2.21821,-0.287665 l 1.12033,1.940685 2.13755,-1.234111 -1.12169,-1.943032 a 6.0340614,6.0340614 0 0 0 1.36471,-1.773479 l 2.16379,0.579786 0.63877,-2.383922 -2.16878,-0.581127 a 6.0340614,6.0340614 0 0 0 -0.28793,-2.218286 l 1.94068,-1.120337 -1.23411,-2.137541 -1.9429,1.121728 a 6.0340614,6.0340614 0 0 0 -1.77347,-1.364718 l 0.57978,-2.163784 -2.38392,-0.638766 -0.58113,2.168771 a 6.0340614,6.0340614 0 0 0 -2.21843,0.287908 l -1.12033,-1.940685 -2.13754,1.23411 1.12172,1.942885 a 6.0340614,6.0340614 0 0 0 -1.36457,1.773522 l -2.16393,-0.579828 z m 4.74777,0.0011 a 3.5587729,3.5587729 0 0 1 0.002,-0.0057 3.5587729,3.5587729 0 0 1 4.35852,-2.516509 3.5587729,3.5587729 0 0 1 2.51647,4.358663 3.5587729,3.5587729 0 0 1 -4.35862,2.516327 3.5587729,3.5587729 0 0 1 -2.51799,-4.352488 z" />
    </g>
  </g>
</svg>
